General


Format                           : MPEG-4
Format profile                   : Base Media
Codec ID                         : isom
File size                        : 55.4 MiB
Duration                         : 3mn 59s
Overall bit rate                 : 1 935 Kbps
Encoded date                     : UTC 2012-03-06 16:34:02
Tagged date                      : UTC 2012-03-06 16:34:02

Video
ID                               : 1
Format                           : AVC
Format/Info                      : Advanced Video Codec
Format profile                   : High@L3.0
Format settings, CABAC           : Yes
Format settings, ReFrames        : 2 frames
Codec ID                         : avc1
Codec ID/Info                    : Advanced Video Coding
Duration                         : 3mn 59s
Bit rate mode                    : Variable
Bit rate                         : 1 866 Kbps
Maximum bit rate                 : 4 944 Kbps
Width                            : 720 pixels
Height                           : 480 pixels
Display aspect ratio             : 4:3
Original display aspect ratio    : 4:3
Frame rate mode                  : Constant
Frame rate                       : 25.000 fps
Standard                         : NTSC
Color space                      : YUV
Chroma subsampling               : 4:2:0
Bit depth                        : 8 bits
Scan type                        : Progressive
Bits/(Pixel*Frame)               : 0.216
Stream size                      : 53.4 MiB (96%)


Audio
ID                               : 2
Format                           : AAC
Format/Info                      : Advanced Audio Codec
Format profile                   : LC
Codec ID                         : 40
Duration                         : 3mn 59s
Bit rate mode                    : Variable
Bit rate                         : 62.2 Kbps
Maximum bit rate                 : 79.7 Kbps
Channel(s)                       : 2 channels
Channel positions                : Front: L R
Sampling rate                    : 44.1 KHz
Compression mode                 : Lossy
Stream size                      : 1.78 MiB (3%)


